Coordinates
version=1
nRows=10
nColumns=63
inDegrees=yes

Units are S.I. units (second, meters, Newtons, ...)
If the header above contains a line with 'inDegrees', this indicates whether rotational values are in degrees (yes) or radians (no).

endheader
time	pelvis_tilt	pelvis_list	pelvis_rotation	pelvis_tx	pelvis_ty	pelvis_tz	hip_flexion_r	hip_adduction_r	hip_rotation_r	knee_angle_r	knee_angle_r_beta	ankle_angle_r	subtalar_angle_r	mtp_angle_r	hip_flexion_l	hip_adduction_l	hip_rotation_l	knee_angle_l	knee_angle_l_beta	ankle_angle_l	subtalar_angle_l	mtp_angle_l	L5_S1_Flex_Ext	L5_S1_Lat_Bending	L5_S1_axial_rotation	L4_L5_Flex_Ext	L4_L5_Lat_Bending	L4_L5_axial_rotation	L3_L4_Flex_Ext	L3_L4_Lat_Bending	L3_L4_axial_rotation	L2_L3_Flex_Ext	L2_L3_Lat_Bending	L2_L3_axial_rotation	L1_L2_Flex_Ext	L1_L2_Lat_Bending	L1_L2_axial_rotation	L1_T12_Flex_Ext	L1_T12_Lat_Bending	L1_T12_axial_rotation	Abs_r3	Abs_r2	Abs_r1	Abs_t1	Abs_t2	neck_flexion	neck_bending	neck_rotation	arm_flex_r	arm_add_r	arm_rot_r	elbow_flex_r	pro_sup_r	wrist_flex_r	wrist_dev_r	arm_flex_l	arm_add_l	arm_rot_l	elbow_flex_l	pro_sup_l	wrist_flex_l	wrist_dev_l
      0.00000000	      3.41523182	     -7.62557808	     88.43443510	      0.27402649	      0.63250779	      0.71895499	     20.85604593	      0.83515391	    -15.64092341	     18.72074800	      0.32673869	     35.47306348	     17.85088128	      0.00000000	     14.82188587	     -4.43153477	      2.09487804	      6.71750317	      0.11724255	     33.94452393	     -6.21442126	      0.00000000	      0.79910377	      0.54498969	      0.14608949	      1.48401560	      0.72483629	      0.15522008	      1.31284758	      1.32508793	      0.15522008	      0.91329569	      1.32508793	      0.12782830	      0.74204776	      1.11134297	      0.11869771	      0.45660789	      0.84418903	      0.10956712	      5.70791829	      6.16503235	      0.81250592	      0.00000000	      0.00000000	     28.45007508	     15.79979520	     27.27544484	     22.15949997	      4.71681136	    167.40103747	      2.26346736	      2.19546486	     -4.69281296	     -9.13100682	     22.62277766	      3.50668860	    110.02940264	     13.30871329	      5.44432125	     -2.28492747	    -14.61085794
      0.01666667	      2.26963374	     -7.54268057	     88.11369987	      0.27536575	      0.63325244	      0.71988236	     20.97934642	     -0.23739113	    -14.61435539	     19.42642962	      0.33905516	     34.87091199	     17.70483112	      0.00000000	     14.56482973	     -3.36812081	      1.62256606	      5.65889121	      0.09876628	     33.88524781	     -5.51908603	      0.00000000	      0.80336443	      0.37104491	      0.26164249	      1.49192807	      0.49348973	      0.27799514	      1.31984741	      0.90215858	      0.27799514	      0.91816520	      0.90215858	      0.22893718	      0.74600421	      0.75663477	      0.21258452	      0.45904243	      0.57474856	      0.19623187	      5.73835176	      4.19733419	      1.45517702	      0.00000000	      0.00000000	     28.45199346	     15.84166642	     25.12649241	     22.60317196	      5.17013613	    159.35162808	      3.55475654	      2.12797546	     -3.38764681	    -10.82158864	     22.11705374	      2.59020238	    112.40460873	     13.12829927	      5.46724065	     -0.89950784	    -13.72095036
      0.03333333	      1.41588706	     -7.50656464	     87.68223943	      0.27654675	      0.63377542	      0.72086147	     21.19544951	     -0.97204224	    -13.72883955	     19.86255580	      0.34666700	     34.62138417	     17.61126540	      0.00000000	     14.42105390	     -2.62938752	      1.10218212	      4.93886848	      0.08619952	     33.78977153	     -4.91339786	      0.00000000	      0.80501406	      0.24630865	      0.38005535	      1.49499162	      0.32759050	      0.40380881	      1.32255760	      0.59887484	      0.40380881	      0.92005057	      0.59887484	      0.33254843	      0.74753606	      0.50227259	      0.30879497	      0.45998504	      0.38153209	      0.28504151	      5.75013495	      2.78629266	      2.11375385	      0.00000000	      0.00000000	     28.45426782	     15.66055559	     23.53287372	     23.21714121	      5.15480511	    149.15417491	      5.68239258	      2.22092149	     -1.94903637	    -11.98990596	     21.95603668	      2.06822223	    114.79212207	     12.74082716	      5.10047474	      0.13564856	    -13.35053966
      0.05000000	      0.96112378	     -7.55393668	     87.39080767	      0.27718031	      0.63403239	      0.72219333	     21.51673552	     -1.35827545	    -13.20809831	     20.08806584	      0.35060289	     34.59376574	     17.55072211	      0.00000000	     14.56538902	     -2.25619053	      0.77708440	      4.71089322	      0.08222060	     33.76141772	     -4.47447528	      0.00000000	      0.80077838	      0.18386975	      0.42836276	      1.48712553	      0.24454677	      0.45513543	      1.31559880	      0.44706091	      0.45513543	      0.91520961	      0.44706091	      0.37481742	      0.74360280	      0.37494720	      0.34804474	      0.45756477	      0.28481425	      0.32127207	      5.71987988	      2.07997141	      2.38242517	      0.00000000	      0.00000000	     28.45387359	     15.74737167	     23.11682942	     24.03437882	      4.15504238	    133.28935567	      9.67369582	      3.16346597	     -0.52537468	    -11.75663042	     22.03176074	      1.95434931	    117.42863354	     11.95569070	      4.30487813	      1.21195257	    -13.48168087
      0.06666667	      0.93480673	     -7.57942958	     87.27133127	      0.27758828	      0.63427159	      0.72319757	     21.68339775	     -1.34520955	    -13.18763635	     19.99740784	      0.34902061	     34.72866630	     17.55841013	      0.00000000	     14.69597867	     -2.28280704	      0.89048483	      4.65852166	      0.08130654	     33.76912561	     -4.39297353	      0.00000000	      0.78965779	      0.17776333	      0.43794589	      1.46647349	      0.23642523	      0.46531751	      1.29732879	      0.43221376	      0.46531751	      0.90249989	      0.43221376	      0.38320265	      0.73327623	      0.36249498	      0.35583104	      0.45121046	      0.27535540	      0.32845942	      5.64044666	      2.01089435	      2.43572366	      0.00000000	      0.00000000	     28.45626666	     15.72081456	     23.09169094	     24.31217682	      4.22986295	    133.20826612	      9.63585741	      3.11503742	     -0.49245546	    -11.85078309	     22.19290528	      1.87932703	    117.41936658	     11.81685351	      4.31379284	      1.21967249	    -13.50802930
      0.08333333	      0.58400971	     -7.79902083	     86.89291764	      0.27806172	      0.63415586	      0.72410674	     22.10642180	     -1.55819646	    -12.68694052	     19.79121050	      0.34542179	     35.08222564	     17.63435385	      0.00000000	     14.97527398	     -2.03090450	      0.83244046	      4.62989652	      0.08080694	     33.57213126	     -4.40844896	      0.00000000	      0.81373084	      0.13868648	      0.52366755	      1.51117954	      0.18445302	      0.55639677	      1.33687839	      0.33720231	      0.55639677	      0.93001298	      0.33720231	      0.45820910	      0.75563046	      0.28280947	      0.42547988	      0.46496580	      0.21482536	      0.39275066	      5.81239800	      1.56884923	      2.91248179	      0.00000000	      0.00000000	     28.45555699	     15.70507718	     23.03875347	     24.60045631	      4.02597572	    132.62039574	     10.06947293	      2.85020860	      0.02569710	    -12.35870727	     22.41493716	      1.92677016	    117.75435611	     11.42284846	      4.56115563	      1.52418692	    -13.91270176
      0.10000000	      0.23302859	     -7.95475471	     86.01479444	      0.27920427	      0.63399973	      0.72500786	     22.67740811	     -1.61239909	    -11.88116265	     19.98016129	      0.34871960	     35.42386428	     17.59589858	      0.00000000	     15.12674647	     -1.90453567	      0.33370707	      4.64825469	      0.08112735	     33.41591803	     -4.82760455	      0.00000000	      0.82321567	      0.10654051	      0.68447564	      1.52879382	      0.14169888	      0.72725537	      1.35246102	      0.25904260	      0.72725537	      0.94085319	      0.25904260	      0.59891619	      0.76443807	      0.21725741	      0.55613646	      0.47038543	      0.16503125	      0.51335673	      5.88014720	      1.20520759	      3.80684818	      0.00000000	      0.00000000	     28.45748503	     15.60215076	     23.15294265	     24.66584941	      4.01403126	    131.46723969	      9.97753243	      2.96024149	      0.59390426	    -12.06753342	     22.70693651	      2.06299289	    118.90352538	     10.96974323	      4.70560986	      1.45339538	    -14.65504108
      0.11666667	      0.21538076	     -7.98533427	     85.94177851	      0.27938929	      0.63401146	      0.72553843	     22.83631845	     -1.58920377	    -11.85238055	     19.87649052	      0.34691020	     35.69240629	     17.58623939	      0.00000000	     15.17857470	     -1.91446721	      0.37321254	      4.62692311	      0.08075504	     33.35888662	     -4.79392308	      0.00000000	      0.81709269	      0.10610741	      0.69044670	      1.51742283	      0.14112285	      0.73359962	      1.34240158	      0.25798955	      0.73359962	      0.93385523	      0.25798955	      0.60414086	      0.75875227	      0.21637423	      0.56098795	      0.46688676	      0.16436037	      0.51783503	      5.83641137	      1.20030822	      3.84005743	      0.00000000	      0.00000000	     28.45894819	     15.62726146	     23.14494539	     24.80955901	      3.93653451	    131.45870280	      9.95019700	      3.00060819	      0.59581110	    -12.01390162	     22.94856770	      2.16882753	    118.91328557	     10.90354284	      4.66259650	      1.41493558	    -14.68018658
      0.13333333	     -0.21619048	     -8.05643327	     85.12594990	      0.28032097	      0.63387333	      0.72627946	     23.19866598	     -1.68279375	    -10.62268825	     19.89694940	      0.34726728	     35.90858232	     17.42477965	      0.00000000	     15.23092892	     -1.73471382	     -1.60123491	      4.63762560	      0.08094184	     33.60171660	     -3.22238475	      0.00000000	      0.80808789	      0.07110605	      0.82305194	      1.50070002	      0.09457105	      0.87449269	      1.32760759	      0.17288725	      0.87449269	      0.92356365	      0.17288725	      0.72017045	      0.75039041	      0.14499946	      0.66872970	      0.46174142	      0.11014327	      0.61728896	      5.77209098	      0.80436586	      4.57756800	      0.00000000	      0.00000000	     28.45617557	     16.26326574	     24.32580707	     25.12077457	      3.69766532	    128.87244652	     10.59074098	      4.06116569	      0.88196656	    -10.79704014	     23.17960237	      1.80980161	    116.36116189	     11.92752261	      5.67974634	      0.47924742	    -14.52327922
      0.15000000	     -0.24566916	     -8.18922629	     85.08194631	      0.28030220	      0.63380978	      0.72637305	     23.29285416	     -1.64261778	    -10.32666472	     19.69853948	      0.34380437	     35.83451192	     17.35018062	      0.00000000	     15.30272108	     -1.61913976	      0.93014204	      4.45077215	      0.07768063	     32.84915091	     -6.78586769	      0.00000000	      0.82034204	      0.07708781	      0.80193153	      1.52345720	      0.10252679	      0.85205225	      1.34773993	      0.18743131	      0.85205225	      0.93756892	      0.18743131	      0.70169009	      0.76176962	      0.15719747	      0.65156937	      0.46874344	      0.11940902	      0.60144865	      5.85962114	      0.87203278	      4.46010261	      0.00000000	      0.00000000	     28.45589322	     16.55678453	     24.93148357	     25.13652875	      4.34740955	    136.44270741	      8.71651153	      3.09512199	      0.96174431	    -11.31051865	     23.23437429	      2.44153745	    121.96309285	     10.60514823	      3.51572196	      0.62839303	    -15.07761318
